<?xml version="1.0" encoding="UTF-8" standalone="no"?><!-- Generator: Gravit.io --><svg xmlns="http://www.w3.org/2000/svg" xmlns:xlink="http://www.w3.org/1999/xlink" style="isolation:isolate" viewBox="1220 428.72 238 301.44" width="238pt" height="301.44pt"><path d=" M 1438 515.14 L 1438 710.16 L 1284 710.16 L 1284 710.16 L 1284 679.245 L 1284 679.245 L 1402.981 679.245 C 1408.5 679.245 1412.981 674.765 1412.981 669.245 L 1412.981 571.438 C 1412.981 565.918 1408.5 561.438 1402.981 561.438 L 1284 561.438 L 1284 448.72 L 1371.58 448.72 L 1371.58 495.14 C 1371.58 500.44 1373.68 505.54 1377.43 509.28 C 1381.18 513.03 1386.27 515.14 1391.58 515.14 L 1438 515.14 L 1438 515.14 Z  M 1423.89 495.14 L 1391.58 462.76 L 1391.58 495.14 L 1423.89 495.14 L 1423.89 495.14 Z  M 1264 679.245 L 1264 710.16 L 1264 710.16 C 1264 715.46 1266.11 720.55 1269.86 724.3 C 1273.61 728.05 1278.7 730.16 1284 730.16 L 1438 730.16 C 1443.3 730.16 1448.39 728.05 1452.14 724.3 C 1455.89 720.55 1458 715.46 1458 710.16 L 1458 501.01 L 1385.87 428.72 L 1284 428.72 C 1278.7 428.72 1273.61 430.83 1269.86 434.58 C 1266.11 438.33 1264 443.42 1264 448.72 L 1264 561.438 L 1230 561.438 C 1224.481 561.438 1220 565.918 1220 571.438 L 1220 669.245 C 1220 674.765 1224.481 679.245 1230 679.245 L 1264 679.245 L 1264 679.245 L 1264 679.245 Z  M 1262.802 608.771 L 1262.802 621.327 L 1267.328 621.327 L 1267.328 621.327 Q 1271.051 621.327 1272.84 619.575 L 1272.84 619.575 L 1272.84 619.575 Q 1274.628 617.823 1274.628 614.611 L 1274.628 614.611 L 1274.628 614.611 Q 1274.628 611.399 1272.657 610.085 L 1272.657 610.085 L 1272.657 610.085 Q 1270.686 608.771 1267.036 608.771 L 1267.036 608.771 L 1262.802 608.771 L 1262.802 608.771 L 1262.802 608.771 Z  M 1307.186 608.917 L 1307.186 636.219 L 1307.916 636.219 L 1307.916 636.219 Q 1310.471 636.219 1312.734 635.599 L 1312.734 635.599 L 1312.734 635.599 Q 1314.997 634.978 1316.64 633.445 L 1316.64 633.445 L 1316.64 633.445 Q 1318.282 631.912 1319.231 629.211 L 1319.231 629.211 L 1319.231 629.211 Q 1320.18 626.51 1320.18 622.349 L 1320.18 622.349 L 1320.18 622.349 Q 1320.18 618.188 1319.231 615.56 L 1319.231 615.56 L 1319.231 615.56 Q 1318.282 612.932 1316.64 611.472 L 1316.64 611.472 L 1316.64 611.472 Q 1314.997 610.012 1312.734 609.465 L 1312.734 609.465 L 1312.734 609.465 Q 1310.471 608.917 1307.916 608.917 L 1307.916 608.917 L 1307.186 608.917 L 1307.186 608.917 L 1307.186 608.917 Z  M 1354.052 646.293 L 1341.496 646.293 L 1341.496 598.843 L 1372.448 598.843 L 1372.448 609.355 L 1354.052 609.355 L 1354.052 618.407 L 1369.82 618.407 L 1369.82 628.919 L 1354.052 628.919 L 1354.052 646.293 L 1354.052 646.293 L 1354.052 646.293 Z  M 1262.802 646.293 L 1250.246 646.293 L 1250.246 598.843 L 1267.62 598.843 L 1267.62 598.843 Q 1271.489 598.843 1274.993 599.61 L 1274.993 599.61 L 1274.993 599.61 Q 1278.497 600.376 1281.125 602.238 L 1281.125 602.238 L 1281.125 602.238 Q 1283.753 604.099 1285.323 607.129 L 1285.323 607.129 L 1285.323 607.129 Q 1286.892 610.158 1286.892 614.611 L 1286.892 614.611 L 1286.892 614.611 Q 1286.892 618.991 1285.323 622.13 L 1285.323 622.13 L 1285.323 622.13 Q 1283.753 625.269 1281.125 627.277 L 1281.125 627.277 L 1281.125 627.277 Q 1278.497 629.284 1275.066 630.27 L 1275.066 630.27 L 1275.066 630.27 Q 1271.635 631.255 1267.912 631.255 L 1267.912 631.255 L 1262.802 631.255 L 1262.802 646.293 L 1262.802 646.293 L 1262.802 646.293 Z  M 1309.376 646.293 L 1294.63 646.293 L 1294.63 598.843 L 1308.646 598.843 L 1308.646 598.843 Q 1314.048 598.843 1318.538 600.157 L 1318.538 600.157 L 1318.538 600.157 Q 1323.027 601.471 1326.239 604.318 L 1326.239 604.318 L 1326.239 604.318 Q 1329.451 607.165 1331.24 611.618 L 1331.24 611.618 L 1331.24 611.618 Q 1333.028 616.071 1333.028 622.349 L 1333.028 622.349 L 1333.028 622.349 Q 1333.028 628.627 1331.276 633.153 L 1331.276 633.153 L 1331.276 633.153 Q 1329.524 637.679 1326.349 640.599 L 1326.349 640.599 L 1326.349 640.599 Q 1323.173 643.519 1318.83 644.906 L 1318.83 644.906 L 1318.83 644.906 Q 1314.486 646.293 1309.376 646.293 L 1309.376 646.293 L 1309.376 646.293 L 1309.376 646.293 Z " fill-rule="evenodd" fill="rgb(0,0,0)"/></svg>