<svg width="44" height="44" viewBox="0 0 44 44" fill="none" xmlns="http://www.w3.org/2000/svg">
<rect width="44" height="44" rx="4" fill="#548FE7"/>
<path d="M13.3534 32L8.8894 14.144H14.1454L15.8734 22.424C16.0174 23.312 16.1494 24.188 16.2694 25.052C16.3894 25.916 16.5214 26.804 16.6654 27.716H16.8094C16.9774 26.804 17.1334 25.904 17.2774 25.016C17.4454 24.128 17.6374 23.264 17.8534 22.424L19.8334 14.144H24.4054L26.4214 22.424C26.6374 23.312 26.8294 24.188 26.9974 25.052C27.1654 25.916 27.3454 26.804 27.5374 27.716H27.6814C27.8494 26.804 27.9814 25.916 28.0774 25.052C28.1974 24.188 28.3414 23.312 28.5094 22.424L30.2014 14.144H35.0974L30.8134 32H24.6214L23.0014 24.872C22.8094 24.032 22.6414 23.192 22.4974 22.352C22.3534 21.512 22.1974 20.612 22.0294 19.652H21.8854C21.7174 20.612 21.5614 21.512 21.4174 22.352C21.2974 23.192 21.1534 24.032 20.9854 24.872L19.4014 32H13.3534Z" fill="white"/>
</svg>
