<?xml version="1.0" encoding="UTF-8" standalone="no"?><!-- Generator: Gravit.io --><svg xmlns="http://www.w3.org/2000/svg" xmlns:xlink="http://www.w3.org/1999/xlink" style="isolation:isolate" viewBox="1509 428.72 238 301.44" width="238pt" height="301.44pt"><path d=" M 1727 515.14 L 1727 710.16 L 1573 710.16 L 1573 710.16 L 1573 679.245 L 1573 679.245 L 1691.981 679.245 C 1697.5 679.245 1701.981 674.765 1701.981 669.245 L 1701.981 571.438 C 1701.981 565.918 1697.5 561.438 1691.981 561.438 L 1573 561.438 L 1573 448.72 L 1660.58 448.72 L 1660.58 495.14 C 1660.58 500.44 1662.68 505.54 1666.43 509.28 C 1670.18 513.03 1675.27 515.14 1680.58 515.14 L 1727 515.14 L 1727 515.14 Z  M 1712.89 495.14 L 1680.58 462.76 L 1680.58 495.14 L 1712.89 495.14 L 1712.89 495.14 Z  M 1553 679.245 L 1553 710.16 L 1553 710.16 C 1553 715.46 1555.11 720.55 1558.86 724.3 C 1562.61 728.05 1567.7 730.16 1573 730.16 L 1727 730.16 C 1732.3 730.16 1737.39 728.05 1741.14 724.3 C 1744.89 720.55 1747 715.46 1747 710.16 L 1747 501.01 L 1674.87 428.72 L 1573 428.72 C 1567.7 428.72 1562.61 430.83 1558.86 434.58 C 1555.11 438.33 1553 443.42 1553 448.72 L 1553 561.438 L 1519 561.438 C 1513.481 561.438 1509 565.918 1509 571.438 L 1509 669.245 C 1509 674.765 1513.481 679.245 1519 679.245 L 1553 679.245 L 1553 679.245 L 1553 679.245 Z  M 1551.802 608.771 L 1551.802 621.327 L 1556.328 621.327 L 1556.328 621.327 Q 1560.051 621.327 1561.84 619.575 L 1561.84 619.575 L 1561.84 619.575 Q 1563.628 617.823 1563.628 614.611 L 1563.628 614.611 L 1563.628 614.611 Q 1563.628 611.399 1561.657 610.085 L 1561.657 610.085 L 1561.657 610.085 Q 1559.686 608.771 1556.036 608.771 L 1556.036 608.771 L 1551.802 608.771 L 1551.802 608.771 L 1551.802 608.771 Z  M 1595.602 646.293 L 1583.63 646.293 L 1583.63 598.843 L 1596.478 598.843 L 1606.99 620.013 L 1611.516 630.671 L 1611.808 630.671 L 1611.808 630.671 Q 1611.589 628.773 1611.297 626.51 L 1611.297 626.51 L 1611.297 626.51 Q 1611.005 624.247 1610.786 621.875 L 1610.786 621.875 L 1610.786 621.875 Q 1610.567 619.502 1610.385 617.13 L 1610.385 617.13 L 1610.385 617.13 Q 1610.202 614.757 1610.202 612.567 L 1610.202 612.567 L 1610.202 598.843 L 1622.174 598.843 L 1622.174 646.293 L 1609.326 646.293 L 1598.814 625.05 L 1594.288 614.465 L 1593.996 614.465 L 1593.996 614.465 Q 1594.434 618.553 1595.018 623.371 L 1595.018 623.371 L 1595.018 623.371 Q 1595.602 628.189 1595.602 632.569 L 1595.602 632.569 L 1595.602 646.293 L 1595.602 646.293 L 1595.602 646.293 Z  M 1654.586 647.169 L 1654.586 647.169 L 1654.586 647.169 Q 1649.622 647.169 1645.242 645.673 L 1645.242 645.673 L 1645.242 645.673 Q 1640.862 644.176 1637.614 641.147 L 1637.614 641.147 L 1637.614 641.147 Q 1634.365 638.117 1632.504 633.555 L 1632.504 633.555 L 1632.504 633.555 Q 1630.642 628.992 1630.642 622.933 L 1630.642 622.933 L 1630.642 622.933 Q 1630.642 616.947 1632.54 612.312 L 1632.54 612.312 L 1632.54 612.312 Q 1634.438 607.676 1637.687 604.501 L 1637.687 604.501 L 1637.687 604.501 Q 1640.935 601.325 1645.242 599.646 L 1645.242 599.646 L 1645.242 599.646 Q 1649.549 597.967 1654.294 597.967 L 1654.294 597.967 L 1654.294 597.967 Q 1659.55 597.967 1663.383 599.829 L 1663.383 599.829 L 1663.383 599.829 Q 1667.215 601.69 1669.77 604.245 L 1669.77 604.245 L 1663.2 612.275 L 1663.2 612.275 Q 1661.448 610.742 1659.514 609.757 L 1659.514 609.757 L 1659.514 609.757 Q 1657.579 608.771 1654.732 608.771 L 1654.732 608.771 L 1654.732 608.771 Q 1652.323 608.771 1650.279 609.72 L 1650.279 609.72 L 1650.279 609.72 Q 1648.235 610.669 1646.702 612.421 L 1646.702 612.421 L 1646.702 612.421 Q 1645.169 614.173 1644.33 616.728 L 1644.33 616.728 L 1644.33 616.728 Q 1643.49 619.283 1643.49 622.495 L 1643.49 622.495 L 1643.49 622.495 Q 1643.49 629.211 1646.483 632.788 L 1646.483 632.788 L 1646.483 632.788 Q 1649.476 636.365 1655.9 636.365 L 1655.9 636.365 L 1655.9 636.365 Q 1656.922 636.365 1657.908 636.146 L 1657.908 636.146 L 1657.908 636.146 Q 1658.893 635.927 1659.55 635.489 L 1659.55 635.489 L 1659.55 628.919 L 1652.542 628.919 L 1652.542 618.699 L 1670.646 618.699 L 1670.646 641.329 L 1670.646 641.329 Q 1668.091 643.738 1663.857 645.454 L 1663.857 645.454 L 1663.857 645.454 Q 1659.623 647.169 1654.586 647.169 L 1654.586 647.169 Z  M 1551.802 646.293 L 1539.246 646.293 L 1539.246 598.843 L 1556.62 598.843 L 1556.62 598.843 Q 1560.489 598.843 1563.993 599.61 L 1563.993 599.61 L 1563.993 599.61 Q 1567.497 600.376 1570.125 602.238 L 1570.125 602.238 L 1570.125 602.238 Q 1572.753 604.099 1574.323 607.129 L 1574.323 607.129 L 1574.323 607.129 Q 1575.892 610.158 1575.892 614.611 L 1575.892 614.611 L 1575.892 614.611 Q 1575.892 618.991 1574.323 622.13 L 1574.323 622.13 L 1574.323 622.13 Q 1572.753 625.269 1570.125 627.277 L 1570.125 627.277 L 1570.125 627.277 Q 1567.497 629.284 1564.066 630.27 L 1564.066 630.27 L 1564.066 630.27 Q 1560.635 631.255 1556.912 631.255 L 1556.912 631.255 L 1551.802 631.255 L 1551.802 646.293 L 1551.802 646.293 L 1551.802 646.293 Z " fill-rule="evenodd" fill="rgb(0,0,0)"/></svg>