<svg width="44" height="44" viewBox="0 0 44 44" fill="none" xmlns="http://www.w3.org/2000/svg">
<rect width="44" height="44" rx="4" fill="#EA6161"/>
<g clip-path="url(#clip0)">
<path d="M36.1071 27.007C35.9294 27.1141 35.4219 27.1799 35.1005 27.1799C34.0516 27.1799 32.7659 26.7107 30.9473 25.9533C31.6493 25.9039 32.2837 25.8792 32.8589 25.8792C33.9078 25.8792 34.2123 25.8792 35.2443 26.1344C36.2678 26.3814 36.2762 26.9 36.1071 27.007ZM17.9125 27.1635C18.3185 26.4719 18.733 25.7392 19.1559 24.9571C20.1879 23.0554 20.8476 21.5571 21.3298 20.3304C22.3025 22.051 23.5121 23.5082 24.9247 24.6772C25.1023 24.8254 25.2884 24.9654 25.4914 25.1135C22.607 25.6734 20.1117 26.3484 17.9125 27.1635ZM21.279 9.14241C21.8542 9.14241 22.1841 10.5469 22.2095 11.8723C22.2349 13.1895 21.9219 14.1116 21.5243 14.8031C21.1944 13.7823 21.0422 12.1852 21.0422 11.1396C21.0422 11.1396 21.0168 9.14241 21.279 9.14241ZM9.99516 34.4328C10.3251 33.5684 11.6108 31.856 13.514 30.333C13.6324 30.2424 13.9284 29.9708 14.1991 29.7238C12.2113 32.8192 10.8749 34.0459 9.99516 34.4328ZM36.6569 25.1876C36.0817 24.6361 34.796 24.3479 32.8505 24.3232C31.5309 24.3068 29.9492 24.422 28.2743 24.6443C27.53 24.2244 26.7602 23.7716 26.1512 23.2201C24.5271 21.7382 23.1738 19.6883 22.3279 17.4326C22.3786 17.2185 22.4294 17.0374 22.4717 16.8481C22.4717 16.8481 23.3852 11.7851 23.1399 10.0727C23.1061 9.83394 23.0892 9.76808 23.0215 9.58697L22.9454 9.38115C22.7001 8.82463 22.2095 8.23189 21.4397 8.264L20.9914 8.25H20.983C20.1286 8.25 19.4266 8.67562 19.2489 9.30706C18.6907 11.3076 19.2659 14.2878 20.3063 18.1488L20.0356 18.7827C19.2912 20.5445 18.3608 22.3227 17.5403 23.8869L17.4303 24.0927C16.5675 25.7392 15.7809 27.1388 15.0704 28.3242L14.3345 28.7029C14.2837 28.7359 13.0234 29.378 12.7273 29.5509C10.2235 31.0081 8.55888 32.6628 8.28313 33.98C8.19516 34.3916 8.26114 34.9267 8.70691 35.182L9.41743 35.5277C9.72448 35.6759 10.0544 35.75 10.3843 35.75C12.169 35.75 14.2414 33.5931 17.092 28.7441C20.3909 27.6986 24.1465 26.8259 27.4369 26.3484C29.9407 27.7233 33.0196 28.6782 34.9651 28.6782C35.3119 28.6782 35.608 28.6453 35.8533 28.5795C36.2255 28.4889 36.5385 28.2831 36.733 27.9949C37.1052 27.4434 37.1898 26.686 37.0798 25.9039C37.0544 25.6734 36.8599 25.3852 36.6569 25.1876Z" fill="white"/>
</g>
<defs>
<clipPath id="clip0">
<rect width="28.875" height="27.5" fill="white" transform="translate(8.25 8.25)"/>
</clipPath>
</defs>
</svg>
