<?xml version="1.0" encoding="UTF-8" standalone="no"?><!-- Generator: Gravit.io --><svg xmlns="http://www.w3.org/2000/svg" xmlns:xlink="http://www.w3.org/1999/xlink" style="isolation:isolate" viewBox="923 428.72 238 301.44" width="238pt" height="301.44pt"><path d=" M 1141 515.14 L 1141 710.16 L 987 710.16 L 987 710.16 L 987 679.246 L 987 679.246 L 1105.981 679.246 C 1111.5 679.246 1115.981 674.765 1115.981 669.246 L 1115.981 571.438 C 1115.981 565.918 1111.5 561.438 1105.981 561.438 L 987 561.438 L 987 448.72 L 1074.58 448.72 L 1074.58 495.14 C 1074.58 500.44 1076.68 505.54 1080.43 509.28 C 1084.18 513.03 1089.27 515.14 1094.58 515.14 L 1141 515.14 L 1141 515.14 Z  M 1126.89 495.14 L 1094.58 462.76 L 1094.58 495.14 L 1126.89 495.14 L 1126.89 495.14 Z  M 967 679.246 L 967 710.16 L 967 710.16 C 967 715.46 969.11 720.55 972.86 724.3 C 976.61 728.05 981.7 730.16 987 730.16 L 1141 730.16 C 1146.3 730.16 1151.39 728.05 1155.14 724.3 C 1158.89 720.55 1161 715.46 1161 710.16 L 1161 501.01 L 1088.87 428.72 L 987 428.72 C 981.7 428.72 976.61 430.83 972.86 434.58 C 969.11 438.33 967 443.42 967 448.72 L 967 561.438 L 933 561.438 C 927.481 561.438 923 565.918 923 571.438 L 923 669.246 C 923 674.765 927.481 679.246 933 679.246 L 967 679.246 L 967 679.246 L 967 679.246 Z  M 965.802 608.917 L 965.802 636.219 L 966.532 636.219 L 966.532 636.219 Q 969.087 636.219 971.35 635.599 L 971.35 635.599 L 971.35 635.599 Q 973.613 634.978 975.256 633.445 L 975.256 633.445 L 975.256 633.445 Q 976.898 631.912 977.847 629.211 L 977.847 629.211 L 977.847 629.211 Q 978.796 626.51 978.796 622.349 L 978.796 622.349 L 978.796 622.349 Q 978.796 618.188 977.847 615.56 L 977.847 615.56 L 977.847 615.56 Q 976.898 612.932 975.256 611.472 L 975.256 611.472 L 975.256 611.472 Q 973.613 610.012 971.35 609.465 L 971.35 609.465 L 971.35 609.465 Q 969.087 608.917 966.532 608.917 L 966.532 608.917 L 965.802 608.917 L 965.802 608.917 L 965.802 608.917 Z  M 1020.114 636.365 L 1020.114 636.365 L 1020.114 636.365 Q 1024.421 636.365 1026.867 632.606 L 1026.867 632.606 L 1026.867 632.606 Q 1029.312 628.846 1029.312 622.349 L 1029.312 622.349 L 1029.312 622.349 Q 1029.312 615.852 1026.867 612.312 L 1026.867 612.312 L 1026.867 612.312 Q 1024.421 608.771 1020.114 608.771 L 1020.114 608.771 L 1020.114 608.771 Q 1015.807 608.771 1013.362 612.312 L 1013.362 612.312 L 1013.362 612.312 Q 1010.916 615.852 1010.916 622.349 L 1010.916 622.349 L 1010.916 622.349 Q 1010.916 628.846 1013.362 632.606 L 1013.362 632.606 L 1013.362 632.606 Q 1015.807 636.365 1020.114 636.365 L 1020.114 636.365 Z  M 1071.214 647.169 L 1071.214 647.169 L 1071.214 647.169 Q 1066.688 647.169 1062.564 645.673 L 1062.564 645.673 L 1062.564 645.673 Q 1058.439 644.176 1055.337 641.147 L 1055.337 641.147 L 1055.337 641.147 Q 1052.234 638.117 1050.409 633.555 L 1050.409 633.555 L 1050.409 633.555 Q 1048.584 628.992 1048.584 622.933 L 1048.584 622.933 L 1048.584 622.933 Q 1048.584 616.947 1050.482 612.312 L 1050.482 612.312 L 1050.482 612.312 Q 1052.38 607.676 1055.556 604.501 L 1055.556 604.501 L 1055.556 604.501 Q 1058.731 601.325 1062.856 599.646 L 1062.856 599.646 L 1062.856 599.646 Q 1066.98 597.967 1071.506 597.967 L 1071.506 597.967 L 1071.506 597.967 Q 1076.251 597.967 1079.974 599.829 L 1079.974 599.829 L 1079.974 599.829 Q 1083.697 601.69 1086.252 604.245 L 1086.252 604.245 L 1079.682 612.275 L 1079.682 612.275 Q 1077.93 610.742 1076.069 609.757 L 1076.069 609.757 L 1076.069 609.757 Q 1074.207 608.771 1071.798 608.771 L 1071.798 608.771 L 1071.798 608.771 Q 1069.681 608.771 1067.82 609.72 L 1067.82 609.72 L 1067.82 609.72 Q 1065.958 610.669 1064.535 612.421 L 1064.535 612.421 L 1064.535 612.421 Q 1063.111 614.173 1062.272 616.728 L 1062.272 616.728 L 1062.272 616.728 Q 1061.432 619.283 1061.432 622.495 L 1061.432 622.495 L 1061.432 622.495 Q 1061.432 629.211 1064.243 632.788 L 1064.243 632.788 L 1064.243 632.788 Q 1067.053 636.365 1071.652 636.365 L 1071.652 636.365 L 1071.652 636.365 Q 1074.426 636.365 1076.58 635.161 L 1076.58 635.161 L 1076.58 635.161 Q 1078.733 633.956 1080.266 632.277 L 1080.266 632.277 L 1086.836 640.161 L 1086.836 640.161 Q 1083.77 643.665 1079.792 645.417 L 1079.792 645.417 L 1079.792 645.417 Q 1075.813 647.169 1071.214 647.169 L 1071.214 647.169 Z  M 967.992 646.293 L 953.246 646.293 L 953.246 598.843 L 967.262 598.843 L 967.262 598.843 Q 972.664 598.843 977.154 600.157 L 977.154 600.157 L 977.154 600.157 Q 981.643 601.471 984.855 604.318 L 984.855 604.318 L 984.855 604.318 Q 988.067 607.165 989.856 611.618 L 989.856 611.618 L 989.856 611.618 Q 991.644 616.071 991.644 622.349 L 991.644 622.349 L 991.644 622.349 Q 991.644 628.627 989.892 633.153 L 989.892 633.153 L 989.892 633.153 Q 988.14 637.679 984.965 640.599 L 984.965 640.599 L 984.965 640.599 Q 981.789 643.519 977.446 644.906 L 977.446 644.906 L 977.446 644.906 Q 973.102 646.293 967.992 646.293 L 967.992 646.293 L 967.992 646.293 L 967.992 646.293 Z  M 1020.114 647.169 L 1020.114 647.169 L 1020.114 647.169 Q 1015.15 647.169 1011.099 645.49 L 1011.099 645.49 L 1011.099 645.49 Q 1007.047 643.811 1004.164 640.636 L 1004.164 640.636 L 1004.164 640.636 Q 1001.28 637.46 999.674 632.825 L 999.674 632.825 L 999.674 632.825 Q 998.068 628.189 998.068 622.349 L 998.068 622.349 L 998.068 622.349 Q 998.068 616.509 999.674 611.947 L 999.674 611.947 L 999.674 611.947 Q 1001.28 607.384 1004.164 604.282 L 1004.164 604.282 L 1004.164 604.282 Q 1007.047 601.179 1011.099 599.573 L 1011.099 599.573 L 1011.099 599.573 Q 1015.15 597.967 1020.114 597.967 L 1020.114 597.967 L 1020.114 597.967 Q 1025.005 597.967 1029.093 599.573 L 1029.093 599.573 L 1029.093 599.573 Q 1033.181 601.179 1036.065 604.318 L 1036.065 604.318 L 1036.065 604.318 Q 1038.948 607.457 1040.554 611.983 L 1040.554 611.983 L 1040.554 611.983 Q 1042.16 616.509 1042.16 622.349 L 1042.16 622.349 L 1042.16 622.349 Q 1042.16 628.189 1040.554 632.825 L 1040.554 632.825 L 1040.554 632.825 Q 1038.948 637.46 1036.065 640.636 L 1036.065 640.636 L 1036.065 640.636 Q 1033.181 643.811 1029.093 645.49 L 1029.093 645.49 L 1029.093 645.49 Q 1025.005 647.169 1020.114 647.169 L 1020.114 647.169 Z " fill-rule="evenodd" fill="rgb(0,0,0)"/></svg>