<svg width="44" height="44" viewBox="0 0 44 44" fill="none" xmlns="http://www.w3.org/2000/svg">
<rect width="44" height="44" rx="4" fill="#3CB97D"/>
<path d="M13 30.856L18.472 21.568L13.324 13H19.012L20.596 15.88C20.836 16.384 21.076 16.9 21.316 17.428C21.58 17.932 21.844 18.436 22.108 18.94H22.252C22.444 18.436 22.648 17.932 22.864 17.428C23.08 16.9 23.284 16.384 23.476 15.88L24.7 13H30.172L24.988 22.18L30.496 30.856H24.808L23.08 27.904C22.792 27.4 22.504 26.884 22.216 26.356C21.952 25.828 21.676 25.312 21.388 24.808H21.244C21.028 25.312 20.8 25.828 20.56 26.356C20.32 26.86 20.092 27.376 19.876 27.904L18.472 30.856H13Z" fill="white"/>
</svg>
